Coordinates
version=1
nRows=14
nColumns=40
inDegrees=yes

Units are S.I. units (second, meters, Newtons, ...)
Angles are in degrees.

endheader
time	pelvis_tilt	pelvis_list	pelvis_rotation	pelvis_tx	pelvis_ty	pelvis_tz	hip_flexion_r	hip_adduction_r	hip_rotation_r	knee_angle_r	knee_angle_r_beta	ankle_angle_r	subtalar_angle_r	mtp_angle_r	hip_flexion_l	hip_adduction_l	hip_rotation_l	knee_angle_l	knee_angle_l_beta	ankle_angle_l	subtalar_angle_l	mtp_angle_l	lumbar_extension	lumbar_bending	lumbar_rotation	arm_flex_r	arm_add_r	arm_rot_r	elbow_flex_r	pro_sup_r	wrist_flex_r	wrist_dev_r	arm_flex_l	arm_add_l	arm_rot_l	elbow_flex_l	pro_sup_l	wrist_flex_l	wrist_dev_l
     57.60200000	     -4.89697387	     -3.40038670	     13.12393165	      1.04474315	      0.92768397	      0.51355819	      5.09846790	      4.02391068	    -17.59246311	     17.20458532	     17.20458532	     15.95276658	     -6.83622556	     -2.28425845	     27.06518260	     -5.85949658	      6.82136125	     21.46666338	     21.46666338	      9.21451068	     -4.22112802	      8.08830286	     -7.38628853	      3.39889756	      3.45745933	     55.62130304	    -19.71112778	     -1.31627085	     80.08857843	     44.14765159	      0.00000000	      0.00000000	    -17.90698841	     -9.51088794	     25.49123825	     30.55332191	     41.73050984	      0.00000000	      0.00000000
     57.62400000	     -4.97473127	     -3.40799837	     13.06995724	      1.04555542	      0.92754288	      0.51120976	      4.50826554	      3.97569160	    -17.77961996	     16.68896050	     16.68896050	     16.01974789	     -6.21671149	     -2.40679694	     26.61696049	     -5.78484155	      6.36919384	     20.45734978	     20.45734978	      9.02524240	     -2.87453113	      7.81263864	     -7.24993151	      3.35797006	      3.50659430	     56.63235794	    -19.37116136	     -1.32283343	     80.97327206	     44.13923002	      0.00000000	      0.00000000	    -17.69319238	     -9.43267926	     25.70936398	     30.37767632	     41.75304343	      0.00000000	      0.00000000
     57.64600000	     -5.02643958	     -3.47905136	     12.95423214	      1.04665933	      0.92734370	      0.50871681	      3.87511351	      3.98547378	    -17.98083944	     16.15684609	     16.15684609	     16.09722992	     -5.47678086	     -2.53933849	     26.24410293	     -5.78270082	      5.92538400	     19.95359917	     19.95359917	      8.72771308	     -2.01669506	      7.20060725	     -7.11210598	      3.38573453	      3.55843468	     57.38028639	    -19.01539141	     -1.34283143	     81.80204648	     44.13313559	      0.00000000	      0.00000000	    -17.40816027	     -9.39138812	     25.92409670	     30.16466572	     41.77939433	      0.00000000	      0.00000000
     57.66800000	     -5.08899984	     -3.55253908	     12.73937445	      1.04804578	      0.92703192	      0.50603677	      3.30031570	      3.92917640	    -18.23093640	     15.76827035	     15.76827035	     16.15396859	     -4.53821006	     -2.94646600	     25.82557794	     -5.76343964	      5.60613717	     19.58611010	     19.58611010	      7.42278041	     -2.07400528	      4.02598607	     -6.93070290	      3.39211099	      3.96967028	     57.61404082	    -19.06069842	     -1.64525351	     82.98839827	     44.19791709	      0.00000000	      0.00000000	    -16.72613995	     -9.45182562	     26.77484790	     29.49133634	     41.93376938	      0.00000000	      0.00000000
     57.69000000	     -5.25771415	     -3.61172194	     12.44905202	      1.04947829	      0.92674451	      0.50329678	      2.93447038	      3.85899821	    -18.02697768	     15.54155896	     15.54155896	     16.22354858	     -4.28200721	     -2.94738164	     25.66034830	     -5.70137085	      5.37766934	     19.75793579	     19.75793579	      7.29890178	     -2.28845020	      3.98246407	     -6.61692506	      3.31663563	      4.08179317	     57.88437659	    -18.74508273	     -1.54771177	     83.17476956	     44.19279513	      0.00000000	      0.00000000	    -16.36760697	     -9.61361158	     26.76042976	     29.54469049	     41.94919507	      0.00000000	      0.00000000
     57.71200000	     -5.17564721	     -3.74033025	     12.16674285	      1.05132598	      0.92695835	      0.50020312	      2.02642753	      3.91572894	    -18.24059899	     14.81713971	     14.81713971	     16.14395080	     -3.18252993	     -2.95945420	     25.21993149	     -5.70283806	      5.45539175	     20.02558141	     20.02558141	      6.97400907	     -3.06510112	      3.36993952	     -6.59885363	      3.43468602	      3.98794683	     58.04493599	    -18.24023007	     -1.43837774	     83.67667082	     44.19543964	      0.00000000	      0.00000000	    -16.04837004	     -9.71182774	     26.91514545	     29.47382227	     41.99315140	      0.00000000	      0.00000000
     57.73400000	     -5.20463880	     -3.77709658	     11.76524053	      1.05309720	      0.92703345	      0.49706250	      1.51081770	      3.77714008	    -18.05222919	     14.64940137	     14.64940137	     16.15129019	     -2.71606440	     -2.99159155	     24.98179378	     -5.64296160	      5.30855370	     20.57699539	     20.57699539	      6.87377696	     -3.81537005	      3.15283327	     -6.47496835	      3.38363099	      4.10456146	     58.02116517	    -17.97016490	     -1.34161600	     83.76777637	     44.19637443	      0.00000000	      0.00000000	    -15.62616226	     -9.91486191	     26.91063891	     29.50506238	     42.01911498	      0.00000000	      0.00000000
     57.75600000	     -5.30271952	     -3.84579458	     11.31303826	      1.05480324	      0.92718836	      0.49376441	      1.12353742	      3.62423235	    -17.77778372	     14.55391332	     14.55391332	     16.08527586	     -2.34379329	     -2.99501701	     24.76175804	     -5.62678015	      5.07943679	     21.01310297	     21.01310297	      6.83257776	     -4.41558770	      3.09415926	     -6.31662996	      3.36726986	      4.13791941	     57.86788038	    -17.70950224	     -1.22428316	     83.77902521	     44.19401586	      0.00000000	      0.00000000	    -15.15676458	    -10.18454890	     26.86201474	     29.55846144	     42.03868792	      0.00000000	      0.00000000
     57.77800000	     -5.23800212	     -3.86685864	     10.91678663	      1.05662044	      0.92765392	      0.48990589	      0.33578473	      3.37713057	    -18.19285695	     14.09070830	     14.09070830	     15.95893294	     -0.76800647	     -3.31184199	     24.40006548	     -5.29295670	      5.91650038	     21.57127497	     21.57127497	      6.48067493	     -6.86299766	      3.14396608	     -6.32370485	      3.41343016	      4.32786135	     57.61261561	    -17.60312279	     -1.09560720	     83.72349275	     44.22028060	      0.00000000	      0.00000000	    -14.59564098	    -10.40327514	     26.95889212	     29.50299948	     42.11384710	      0.00000000	      0.00000000
     57.80000000	     -5.28848484	     -3.87550302	     10.39025455	      1.05823912	      0.92801937	      0.48623718	     -0.06564985	      3.10312699	    -17.86938581	     14.06313401	     14.06313401	     15.83871976	     -0.37930637	     -3.33498424	     24.21052744	     -5.19776650	      5.68369994	     22.17693605	     22.17693605	      6.54821261	     -7.58095295	      3.11821198	     -6.25879635	      3.42783487	      4.47480316	     57.26644595	    -17.31115752	     -0.93133858	     83.58802763	     44.22201240	      0.00000000	      0.00000000	    -14.06307491	    -10.70320711	     26.89827485	     29.57562930	     42.14026856	      0.00000000	      0.00000000
     57.82200000	     -5.33834879	     -3.88766809	      9.91996245	      1.05967591	      0.92844367	      0.48217100	     -0.53372661	      2.74691870	    -18.09527309	     13.90564250	     13.90564250	     15.59520726	      0.82945748	     -3.77695477	     24.00718245	     -4.88554211	      6.17543117	     22.73308699	     22.73308699	      6.64309843	     -9.42042174	      3.89563864	     -6.20102812	      3.44664363	      4.69605144	     56.94157801	    -17.39932764	     -0.80186725	     82.89358866	     44.26635948	      0.00000000	      0.00000000	    -13.42162929	    -10.97655863	     26.88987437	     29.63644633	     42.22427181	      0.00000000	      0.00000000
     57.84400000	     -5.39729904	     -3.88884287	      9.38146547	      1.06096973	      0.92882114	      0.47822909	     -0.87662784	      2.41467341	    -17.79333509	     13.90851850	     13.90851850	     15.41717029	      1.25011603	     -3.84293858	     23.83791381	     -4.75350600	      5.92239020	     23.28410853	     23.28410853	      6.86662318	    -10.08502346	      3.97336467	     -6.20074533	      3.49388269	      4.79769755	     56.43004668	    -17.16721437	     -0.64446704	     82.56896727	     44.27490806	      0.00000000	      0.00000000	    -12.84328232	    -11.26937999	     26.81202110	     29.73502970	     42.25688717	      0.00000000	      0.00000000
     57.86600000	     -5.49228828	     -3.89244773	      8.88277323	      1.06203026	      0.92919064	      0.47399009	     -1.22098610	      2.00719056	    -17.93766554	     13.82695487	     13.82695487	     15.13623506	      2.33054440	     -4.32151932	     23.68509866	     -4.48950539	      6.05094392	     23.77289476	     23.77289476	      7.23484064	    -11.22156807	      4.85543396	     -6.10928844	      3.56540604	      5.12467196	     55.94767168	    -17.35629240	     -0.62513219	     81.34083391	     44.33164877	      0.00000000	      0.00000000	    -12.07219934	    -11.58403915	     26.67072965	     29.88587098	     42.34029504	      0.00000000	      0.00000000
     57.88800000	     -5.59792240	     -3.89830828	      8.34582683	      1.06289623	      0.92947673	      0.46992653	     -1.44939164	      1.65194120	    -17.59709589	     13.87184383	     13.87184383	     14.94502931	      2.66528734	     -4.36188481	     23.47523638	     -4.36367663	      5.69761205	     24.07734307	     24.07734307	      7.55421926	    -11.64779405	      4.87101763	     -6.13438807	      3.65260730	      5.08877503	     55.25614313	    -17.04108666	     -0.44783859	     81.01153142	     44.33628543	      0.00000000	      0.00000000	    -11.41786085	    -11.84394945	     26.58226796	     30.00909011	     42.36863188	      0.00000000	      0.00000000
